# xmcd
#
# Track frame offsets:
#	150
#	15102
#	29139
#	43159
#	58178
#	72787
#	87651
#	102182
#	116653
#	130995
#	145132
#	159523
#	174285
#	189027
#	204048
#	217360
#	231539
#	247128
#
# Disc length: 3479 seconds
#
# Revision: 0
# Processed by: cddbd v1.5.1PL2 Copyright (c) Steve Scherf et al.
# Submitted via: audiograbber 1.82.01
#
DISCID=060d9512
DTITLE=ΓΡΗΓΟΡΗΣ ΑΣΙΚΗΣ - ΑΣΙΚΗΣ ΓΡΗΓΟΡΗΣ ΙΙ
DYEAR=1900
DGENRE=REBETIKA
TTITLE0=Ο ΜΕΡΑΚΛΗΣ ΤΩΝ ΣΥΝΟΙΚΙΣΜΩΝ-Γρ. Ασίκη (1931) Εκτέλ. Γρ. Ασίκης
TTITLE1=ΠΡΟΞΕΝΕΙΑ ΣΤΟ ΓΕΩΡΓΟ-Γρ. Ασίκη (1931) Εκτέλ. Γρ. Ασίκης
TTITLE2=ΟΛΑ ΕΔΩ ΘΑ ΜΕΙΝΟΥΝ-Γρ. Ασίκη (1932) Εκτέλ. Γρ. Ασίκης
TTITLE3=Ο ΕΠΑΓΓΕΛΜΑΤΙΑΣ-Γρ. Ασίκη (1932) Εκτέλ. Γρ. Ασίκης
TTITLE4=ΦΤΩΧΟΚΌΡΙΤΣΟ-Γρ. Ασίκη (1936) Εκτέλ. Κ. Ρούκουνας
TTITLE5=ΔΙΧΩΣ ΚΑΛΤΣΕΣ ΠΕΡΠΑΤΟΥΝ-Γρ. Ασίκη-Δημ. Σέμση (1934) Εκτέλ. Ρόζα Εσκενάζ
TTITLE5=υ
TTITLE6=Η ΠΑΝΟΥΡΓΑ-Γρ. Ασίκη (1936) Εκτέλ. Στελ. Περπινιάδης
TTITLE7=ΤΑ ΞΗΜΕΡΩΜΑΤΑ-Γρ. Ασίκη (1934) Εκτέλ. Ρόζα Εσκενάζυ
TTITLE8=Η ΟΡΦΑΝΗ-Γρ. Ασίκη (1934) Εκτέ. Ρίτα Αμπατζή
TTITLE9=ΜΕ ΒΡΗΚΕΣ Ή ΣΕ ΒΡΗΚΑ-Γρ. Ασίκη (1935) Εκτέλ. Ρόζα Εσκενάζυ
TTITLE10=ΕΙΣΑΙ ΠΟΝΤΟΣ (ΕΞΤΡΑ-ΕΞΤΡΑ)-Γρ. Ασίκη (1936) Εκτέλ. Ρίτα Αμπατζή
TTITLE11=ΤΙ ΤΡΑΒΟΥΝ ΟΙ ΑΡ(Ρ)ΑΒΩΝΙΑΣΜΕΝΕΣ -Γρ. Ασίκη (1936) Εκτέλ. Ρίτα Αμπατζή
TTITLE12=ΕΛΕΝΗ ΚΟΛΠΑΔΟΡΑ-Γρ. Ασίκη (1934) Εκτέλ. Γρ. Ασίκης
TTITLE13=ΔΙΑΒΟΛΟΚΟΡΙΤΣΟ-Γρ. Ασίκη (1937) Εκτέλ. Κώστας Τσανάκος
TTITLE14=ΘΑ 'ΡΘΩ ΚΙ ΕΓΩ ΜΑΖΙ-Γρ. Ασίκη (1938) Εκτέλ. Σοφία Καρίβαλη
TTITLE15=ΘΕΣΣΑΛΟΝΙΚΙΑ-Γρ. Ασίκη (1934)Εκτέλ. Γρηγ. Ασίκης
TTITLE16=ΤΑ ΟΡΦΑΝΑ-Γρ. Ασίκη (1936) Εκτέλ. Γρ. Ασίκης
TTITLE17=ΓΙΑ ΜΙΑ ΜΙΚΡΗ ΜΕΛΑΧΡΟΙΝΗ-Γρ. Ασίκη (1940) Εκτέλ. Ιω. Παπαϊωάννου
EXTD=
EXTT0=
EXTT1=
EXTT2=
EXTT3=
EXTT4=
EXTT5=
EXTT6=
EXTT7=
EXTT8=
EXTT9=
EXTT10=
EXTT11=
EXTT12=
EXTT13=
EXTT14=
EXTT15=
EXTT16=
EXTT17=
PLAYORDER=
